#!OML:ASF F:\VICON\USERDATA\INSTALL\rory3\rory3.ASF
:FULLY-SPECIFIED
:DEGREES
340
root -1.83188 18.7416 6.90394 0.48095 9.69028 -1.73032
lowerback 5.51517 -0.707767 0.870588
upperback -0.0701091 -0.947363 -1.89638
thorax -3.21212 -0.499772 -2.36758
lowerneck -3.64562 -11.8976 -11.2458
upperneck -6.38037 -15.2415 16.8532
head 0.95392 -7.55206 6.30865
rclavicle 3.47873e-016 1.66979e-014
rhumerus 84.7228 -59.7146 -93.0182
rradius 32.5075
rwrist 4.8484
rhand -62.779 -13.6109
rfingers 7.12502
rthumb -34.7932 -40.215
lclavicle 3.47873e-016 1.66979e-014
lhumerus -30.1928 8.27868 59.7231
lradius 19.0198
lwrist -9.29628
lhand -14.4127 23.2629
lfingers 7.12502
lthumb 11.7311 52.9144
rfemur -0.525705 15.572 19.7882
rtibia 16.6945
rfoot -18.0457 -30.2784
rtoes -2.14276
lfemur -5.98718 -11.9411 -6.79881
ltibia 20.7111
lfoot -10.4484 11.3278
ltoes -13.587
341
root -1.81914 18.7451 6.89671 0.465445 9.58438 -1.61458
lowerback 5.55505 -0.676851 0.777132
upperback -0.0771332 -0.912813 -1.91203
thorax -3.23887 -0.481418 -2.33365
lowerneck -3.66139 -11.7558 -11.1487
upperneck -6.25548 -15.0617 16.5919
head 0.936249 -7.45962 6.22814
rclavicle 2.05742e-014 3.18055e-015
rhumerus 83.1871 -59.6908 -91.9871
rradius 33.0404
rwrist 4.69943
rhand -62.9075 -13.3909
rfingers 7.12502
rthumb -34.9152 -39.9667
lclavicle 2.05742e-014 3.18055e-015
lhumerus -30.2511 7.92159 59.8225
lradius 19.0743
lwrist -9.40371
lhand -14.4191 23.0315
lfingers 7.12502
lthumb 11.725 52.6833
rfemur -0.590789 15.4794 19.5952
rtibia 16.8476
rfoot -18.0444 -30.0852
rtoes -2.2269
lfemur -6.00178 -12.0329 -6.97556
ltibia 20.9433
lfoot -10.7157 11.3235
ltoes -12.7543
342
root -1.80725 18.7482 6.89138 0.434837 9.42498 -1.65208
lowerback 5.46376 -0.635292 0.819848
upperback 0.0100259 -0.85252 -1.8842
thorax -3.09491 -0.450109 -2.33488
lowerneck -3.83376 -11.6055 -11.0563
upperneck -6.20316 -14.849 16.3612
head 0.922477 -7.34581 6.1528
rclavicle -2.79292e-014 -7.15625e-015
rhumerus 81.9764 -59.5749 -91.2103
rradius 33.544
rwrist 4.49925
rhand -62.6455 -13.7434
rfingers 7.12502
rthumb -34.6666 -40.3767
lclavicle -2.79292e-014 -7.15625e-015
lhumerus -30.1154 7.92377 59.8232
lradius 18.985
lwrist -9.81129
lhand -14.2571 22.7845
lfingers 7.12502
lthumb 11.8812 52.4274
rfemur -0.618495 15.4801 19.591
rtibia 16.9345
rfoot -18.0079 -29.9546
rtoes -2.21221
lfemur -5.9892 -11.9592 -6.98451
ltibia 21.1994
lfoot -10.927 11.2135
ltoes -12.3357
343
root -1.79673 18.747 6.88833 0.297899 9.25577 -1.75407
lowerback 5.43226 -0.570902 0.926744
upperback 0.149908 -0.757681 -1.86697
thorax -2.92952 -0.401868 -2.38548
lowerneck -4.08295 -11.4604 -10.958
upperneck -6.15308 -14.6369 16.2003
head 0.927313 -7.2299 6.09235
rclavicle 2.27608e-014 1.19271e-014
rhumerus 80.8979 -59.4807 -90.6053
rradius 34.1417
rwrist 4.26573
rhand -62.3693 -13.7626
rfingers 7.12502
rthumb -34.4044 -40.4557
lclavicle 2.27608e-014 1.19271e-014
lhumerus -29.8711 8.09601 59.7364
lradius 18.8865
lwrist -10.3963
lhand -13.8167 22.9808
lfingers 7.12502
lthumb 12.3059 52.5986
rfemur -0.566073 15.6002 19.7088
rtibia 17.0634
rfoot -18.0318 -29.9408
rtoes -2.06612
lfemur -5.90442 -11.8814 -6.93087
ltibia 21.3898
lfoot -11.0377 11.1694
ltoes -12.1257
344
root -1.78296 18.7448 6.88459 0.194502 9.07467 -1.73863
lowerback 5.46095 -0.505389 0.933626
upperback 0.232679 -0.669113 -1.87418
thorax -2.85605 -0.356569 -2.40384
lowerneck -4.34322 -11.3389 -10.8819
upperneck -5.9735 -14.4688 15.9565
head 0.97176 -7.13224 6.00204
rclavicle -9.14409e-015 -6.36111e-015
rhumerus 79.689 -59.2832 -89.8805
rradius 34.7574
rwrist 3.94687
rhand -62.5012 -13.4421
rfingers 7.12502
rthumb -34.5296 -40.1067
lclavicle -9.14409e-015 -6.36111e-015
lhumerus -29.7658 7.85471 59.7984
lradius 18.9697
lwrist -10.6571
lhand -13.5862 23.3368
lfingers 7.12502
lthumb 12.5281 52.9412
rfemur -0.579692 15.6491 19.6675
rtibia 17.2247
rfoot -17.9696 -29.9086
rtoes -2.50453
lfemur -5.82996 -11.8824 -7.02193
ltibia 21.5353
lfoot -11.0631 11.2612
ltoes -12.3983
